<svg width="24px" viewBox="0 0 24 24">
  <g>
    <path fill-rule="evenodd" clip-rule="evenodd" d="M4.46 15.46A5 5 0 018 14h8a5 5 0 015 5v2a1 1 0 11-2 0v-2a3 3 0 00-3-3H8a3 3 0 00-3 3v2a1 1 0 11-2 0v-2a5 5 0 011.46-3.54zM12 4a3 3 0 100 6 3 3 0 000-6zM7 7a5 5 0 1110 0A5 5 0 017 7z"></path>
    <rect x="16" y="15" width="9" height="9" rx="6" fill="var(--colors-primary)"></rect>
    <path fill="#fff" d="M24 21h-2v2a1 1 0 11-2 0v-2h-2a1 1 0 110-2h2v-2a1 1 0 112 0v2h2a1 1 0 110 2z"></path>
  </g>
</svg>
